<svg width="400" height="400" viewBox="0 0 400 400" xmlns="http://www.w3.org/2000/svg">
  <rect width="400" height="400" fill="#2F4F4F"/>
  <!-- Location Pin Icon -->
  <g transform="translate(110, 140)">
    <path d="M 20 0 C 8.954 0 0 8.954 0 20 C 0 35 20 50 20 50 C 20 50 40 35 40 20 C 40 8.954 31.046 0 20 0 Z M 20 27 C 16.134 27 13 23.866 13 20 C 13 16.134 16.134 13 20 13 C 23.866 13 27 16.134 27 20 C 27 23.866 23.866 27 20 27 Z" 
          fill="#B8C5C5" stroke="#B8C5C5" stroke-width="2"/>
  </g>
  <!-- Arabic Text "شيّك" -->
  <text x="200" y="240" font-family="Arial, sans-serif" font-size="100" font-weight="bold" fill="#B8C5C5" text-anchor="middle">شيّك</text>
  <!-- English Text "CHECK" -->
  <text x="200" y="300" font-family="Arial, sans-serif" font-size="36" font-weight="bold" fill="#B8C5C5" text-anchor="middle" letter-spacing="8">CHECK</text>
</svg>
