<svg width="400" height="300" viewBox="0 0 400 300" xmlns="http://www.w3.org/2000/svg">
  <!-- Background -->
  <defs>
    <linearGradient id="skyGradient4" x1="0%" y1="0%" x2="0%" y2="100%">
      <stop offset="0%" style="stop-color:#6AB7D4;stop-opacity:1" />
      <stop offset="100%" style="stop-color:#C8E6F0;stop-opacity:1" />
    </linearGradient>
    <linearGradient id="buildingGrad4" x1="0%" y1="0%" x2="0%" y2="100%">
      <stop offset="0%" style="stop-color:#B89968;stop-opacity:1" />
      <stop offset="100%" style="stop-color:#9A7D5A;stop-opacity:1" />
    </linearGradient>
  </defs>
  
  <!-- Sky -->
  <rect width="400" height="300" fill="url(#skyGradient4)"/>
  
  <!-- Clouds -->
  <ellipse cx="100" cy="60" rx="30" ry="15" fill="white" opacity="0.7"/>
  <ellipse cx="120" cy="55" rx="35" ry="18" fill="white" opacity="0.7"/>
  <ellipse cx="300" cy="70" rx="40" ry="20" fill="white" opacity="0.6"/>
  
  <!-- Buildings -->
  <rect x="50" y="135" width="80" height="125" fill="url(#buildingGrad4)" rx="5"/>
  <rect x="145" y="115" width="90" height="145" fill="url(#buildingGrad4)" rx="5"/>
  <rect x="250" y="125" width="85" height="135" fill="url(#buildingGrad4)" rx="5"/>
  
  <!-- Windows -->
  <rect x="65" y="155" width="16" height="20" fill="#5D4E37" rx="2"/>
  <rect x="95" y="155" width="16" height="20" fill="#5D4E37" rx="2"/>
  <rect x="65" y="190" width="16" height="20" fill="#5D4E37" rx="2"/>
  <rect x="95" y="190" width="16" height="20" fill="#5D4E37" rx="2"/>
  
  <rect x="160" y="135" width="18" height="22" fill="#5D4E37" rx="2"/>
  <rect x="195" y="135" width="18" height="22" fill="#5D4E37" rx="2"/>
  <rect x="160" y="175" width="18" height="22" fill="#5D4E37" rx="2"/>
  <rect x="195" y="175" width="18" height="22" fill="#5D4E37" rx="2"/>
  
  <rect x="265" y="145" width="17" height="21" fill="#5D4E37" rx="2"/>
  <rect x="298" y="145" width="17" height="21" fill="#5D4E37" rx="2"/>
  <rect x="265" y="185" width="17" height="21" fill="#5D4E37" rx="2"/>
  <rect x="298" y="185" width="17" height="21" fill="#5D4E37" rx="2"/>
  
  <!-- Ground -->
  <rect y="260" width="400" height="40" fill="#D4A574"/>
  
  <!-- Trees -->
  <ellipse cx="25" cy="250" rx="10" ry="18" fill="#2D5016"/>
  <rect x="21" y="240" width="8" height="32" fill="#8B4513"/>
  
  <ellipse cx="375" cy="245" rx="12" ry="20" fill="#2D5016"/>
  <rect x="370" y="232" width="10" height="38" fill="#8B4513"/>
  
  <!-- City name -->
  <rect x="110" y="20" width="180" height="50" fill="white" opacity="0.95" rx="10"/>
  <text x="200" y="53" font-family="Arial, sans-serif" font-size="26" font-weight="bold" fill="#2F4F4F" text-anchor="middle">البكيرية</text>
</svg>
