<svg width="200" height="200" viewBox="0 0 200 200" xmlns="http://www.w3.org/2000/svg">
  <defs>
    <linearGradient id="columnGrad" x1="0%" y1="0%" x2="0%" y2="100%">
      <stop offset="0%" style="stop-color:#DEB887;stop-opacity:1" />
      <stop offset="100%" style="stop-color:#BC987E;stop-opacity:1" />
    </linearGradient>
  </defs>
  
  <!-- Background -->
  <circle cx="100" cy="100" r="95" fill="#FAF0E6"/>
  
  <!-- Roman column left -->
  <rect x="40" y="60" width="25" height="100" fill="url(#columnGrad)"/>
  <rect x="35" y="55" width="35" height="10" fill="#DEB887"/>
  <rect x="35" y="155" width="35" height="10" fill="#DEB887"/>
  
  <!-- Roman column right -->
  <rect x="135" y="60" width="25" height="100" fill="url(#columnGrad)"/>
  <rect x="130" y="55" width="35" height="10" fill="#DEB887"/>
  <rect x="130" y="155" width="35" height="10" fill="#DEB887"/>
  
  <!-- Pediment (triangle top) -->
  <path d="M 30 50 L 100 20 L 170 50 Z" fill="#C19A6B"/>
  
  <!-- Vase/Amphora in center -->
  <ellipse cx="100" cy="95" rx="20" ry="8" fill="#8B7355"/>
  <path d="M 85 95 Q 85 115 90 135 L 110 135 Q 115 115 115 95 Z" fill="#A0826D"/>
  <ellipse cx="100" cy="135" rx="15" ry="5" fill="#8B7355"/>
  
  <!-- Handles -->
  <path d="M 85 100 Q 70 100 70 110 Q 70 120 85 120" fill="none" stroke="#8B7355" stroke-width="4"/>
  <path d="M 115 100 Q 130 100 130 110 Q 130 120 115 120" fill="none" stroke="#8B7355" stroke-width="4"/>
  
  <!-- Grape vine decoration -->
  <circle cx="95" cy="110" r="4" fill="#8B008B"/>
  <circle cx="100" cy="115" r="4" fill="#8B008B"/>
  <circle cx="105" cy="110" r="4" fill="#8B008B"/>
  
  <!-- Leaf -->
  <ellipse cx="108" cy="105" rx="5" ry="8" fill="#228B22" transform="rotate(30 108 105)"/>
</svg>
