<svg width="200" height="200" viewBox="0 0 200 200" xmlns="http://www.w3.org/2000/svg">
  <defs>
    <linearGradient id="cupGradient" x1="0%" y1="0%" x2="100%" y2="100%">
      <stop offset="0%" style="stop-color:#A0522D;stop-opacity:1" />
      <stop offset="50%" style="stop-color:#8B4513;stop-opacity:1" />
      <stop offset="100%" style="stop-color:#5C3317;stop-opacity:1" />
    </linearGradient>
    <radialGradient id="steamGradient">
      <stop offset="0%" style="stop-color:#FFFFFF;stop-opacity:0.9" />
      <stop offset="50%" style="stop-color:#E8F4F8;stop-opacity:0.5" />
      <stop offset="100%" style="stop-color:#FFFFFF;stop-opacity:0" />
    </radialGradient>
    <filter id="shadow3D">
      <feGaussianBlur in="SourceAlpha" stdDeviation="4"/>
      <feOffset dx="5" dy="7" result="offsetblur"/>
      <feComponentTransfer>
        <feFuncA type="linear" slope="0.5"/>
      </feComponentTransfer>
      <feMerge>
        <feMergeNode/>
        <feMergeNode in="SourceGraphic"/>
      </feMerge>
    </filter>
    <radialGradient id="bgGradient">
      <stop offset="0%" style="stop-color:#FFF8E7;stop-opacity:1" />
      <stop offset="100%" style="stop-color:#F5DEB3;stop-opacity:1" />
    </radialGradient>
    <linearGradient id="coffeeShine" x1="0%" y1="0%" x2="100%" y2="0%">
      <stop offset="0%" style="stop-color:#4A2511;stop-opacity:1" />
      <stop offset="50%" style="stop-color:#3E2723;stop-opacity:1" />
      <stop offset="100%" style="stop-color:#2C1810;stop-opacity:1" />
    </linearGradient>
  </defs>
  
  <!-- Enhanced 3D Background circle -->
  <circle cx="100" cy="100" r="95" fill="url(#bgGradient)"/>
  <circle cx="100" cy="100" r="95" fill="none" stroke="#D4A574" stroke-width="2" opacity="0.3"/>
  
  <!-- 3D Coffee cup with depth -->
  <path d="M 60 90 Q 60 120 70 140 L 130 140 Q 140 120 140 90 L 60 90" 
        fill="url(#cupGradient)" filter="url(#shadow3D)"/>
  <!-- Cup highlight -->
  <path d="M 65 92 Q 65 95 66 98 L 72 98 Q 73 95 73 92 Z" 
        fill="#D4A574" opacity="0.6"/>
  <!-- Side shadow -->
  <path d="M 135 92 L 135 138 Q 136 125 136 110 Q 136 100 135 92" 
        fill="#4A2511" opacity="0.3"/>
  
  <!-- 3D Coffee liquid with reflection -->
  <ellipse cx="100" cy="90" rx="40" ry="10" fill="url(#coffeeShine)" filter="url(#shadow3D)"/>
  <ellipse cx="100" cy="89" rx="35" ry="7" fill="#6F4E37" opacity="0.6"/>
  <ellipse cx="92" cy="88" rx="12" ry="3" fill="#8B6F47" opacity="0.7"/>
  
  <!-- 3D Cup handle with depth -->
  <path d="M 140 100 Q 160 100 160 115 Q 160 130 140 130" 
        fill="none" stroke="url(#cupGradient)" stroke-width="10" filter="url(#shadow3D)"/>
  <path d="M 141 102 Q 158 102 158 115 Q 158 128 141 128" 
        fill="none" stroke="#A0826D" stroke-width="2" opacity="0.5"/>
  
  <!-- Enhanced 3D Steam with glow -->
  <g opacity="0.8">
    <path d="M 80 70 Q 75 55 80 40" fill="none" stroke="url(#steamGradient)" stroke-width="4" stroke-linecap="round"/>
    <path d="M 100 65 Q 95 50 100 35" fill="none" stroke="url(#steamGradient)" stroke-width="4" stroke-linecap="round"/>
    <path d="M 120 70 Q 115 55 120 40" fill="none" stroke="url(#steamGradient)" stroke-width="4" stroke-linecap="round"/>
  </g>
  <!-- Steam glow effect -->
  <circle cx="100" cy="50" r="25" fill="#FFFFFF" opacity="0.1"/>
  
  <!-- 3D Saucer with gradient and shadow -->
  <ellipse cx="100" cy="140" rx="50" ry="8" fill="#C19A6B" filter="url(#shadow3D)"/>
  <ellipse cx="100" cy="139" rx="48" ry="7" fill="#D4A574" opacity="0.7"/>
  <ellipse cx="100" cy="138" rx="30" ry="4" fill="#E8D5B7" opacity="0.5"/>
  
  <!-- 3D Coffee beans with depth -->
  <g filter="url(#shadow3D)">
    <ellipse cx="35" cy="35" rx="8" ry="12" fill="#6F4E37" transform="rotate(30 35 35)"/>
    <ellipse cx="35" cy="35" rx="6" ry="10" fill="#8B6F47" transform="rotate(30 35 35)" opacity="0.6"/>
    <line x1="35" y1="28" x2="35" y2="42" stroke="#4A2511" stroke-width="1.5"/>
    
    <ellipse cx="165" cy="165" rx="8" ry="12" fill="#6F4E37" transform="rotate(45 165 165)"/>
    <ellipse cx="165" cy="165" rx="6" ry="10" fill="#8B6F47" transform="rotate(45 165 165)" opacity="0.6"/>
    <line x1="165" y1="158" x2="165" y2="172" stroke="#4A2511" stroke-width="1.5" transform="rotate(45 165 165)"/>
  </g>
</svg>
