<svg width="200" height="200" viewBox="0 0 200 200" xmlns="http://www.w3.org/2000/svg">
  <defs>
    <linearGradient id="gardenGrad" x1="0%" y1="0%" x2="0%" y2="100%">
      <stop offset="0%" style="stop-color:#90EE90;stop-opacity:1" />
      <stop offset="100%" style="stop-color:#228B22;stop-opacity:1" />
    </linearGradient>
  </defs>
  
  <!-- Background -->
  <circle cx="100" cy="100" r="95" fill="#E8F5E9"/>
  
  <!-- Garden ground -->
  <ellipse cx="100" cy="150" rx="80" ry="30" fill="url(#gardenGrad)"/>
  
  <!-- Trees -->
  <!-- Left tree -->
  <rect x="35" y="100" width="10" height="55" fill="#8B4513"/>
  <circle cx="40" cy="95" r="25" fill="#2E7D32"/>
  <circle cx="30" cy="85" r="18" fill="#2E7D32"/>
  <circle cx="50" cy="85" r="18" fill="#2E7D32"/>
  
  <!-- Right tree -->
  <rect x="155" y="105" width="10" height="50" fill="#8B4513"/>
  <circle cx="160" cy="100" r="23" fill="#2E7D32"/>
  <circle cx="150" cy="92" r="16" fill="#2E7D32"/>
  <circle cx="170" cy="92" r="16" fill="#2E7D32"/>
  
  <!-- Flowers -->
  <circle cx="70" cy="145" r="5" fill="#FF69B4"/>
  <circle cx="75" cy="150" r="5" fill="#FF1493"/>
  <circle cx="125" cy="148" r="5" fill="#FFD700"/>
  <circle cx="130" cy="152" r="5" fill="#FFA500"/>
  
  <!-- Garden table -->
  <ellipse cx="100" cy="100" rx="35" ry="8" fill="#A0826D"/>
  <rect x="75" y="100" width="8" height="50" fill="#8B7355"/>
  <rect x="117" y="100" width="8" height="50" fill="#8B7355"/>
  
  <!-- Coffee cups on table -->
  <g transform="translate(85, 95) scale(0.5)">
    <path d="M -10 0 L -8 12 L 8 12 L 10 0 Z" fill="#FFFFFF" stroke="#8B7355" stroke-width="2"/>
    <ellipse cx="0" cy="0" rx="10" ry="3" fill="#6F4E37"/>
    <path d="M 10 5 Q 15 5 15 8 Q 15 11 10 11" fill="none" stroke="#8B7355" stroke-width="2"/>
  </g>
  
  <g transform="translate(115, 95) scale(0.5)">
    <path d="M -10 0 L -8 12 L 8 12 L 10 0 Z" fill="#FFFFFF" stroke="#8B7355" stroke-width="2"/>
    <ellipse cx="0" cy="0" rx="10" ry="3" fill="#6F4E37"/>
    <path d="M 10 5 Q 15 5 15 8 Q 15 11 10 11" fill="none" stroke="#8B7355" stroke-width="2"/>
  </g>
  
  <!-- Butterflies -->
  <g transform="translate(60, 70)">
    <ellipse cx="-3" cy="0" rx="5" ry="8" fill="#FF69B4" opacity="0.7"/>
    <ellipse cx="3" cy="0" rx="5" ry="8" fill="#FF1493" opacity="0.7"/>
    <circle cx="0" cy="0" r="2" fill="#8B4513"/>
  </g>
  
  <!-- Sun rays -->
  <circle cx="160" cy="40" r="18" fill="#FFD700" opacity="0.6"/>
</svg>
