<svg width="200" height="200" viewBox="0 0 200 200" xmlns="http://www.w3.org/2000/svg">
  <defs>
    <radialGradient id="flowerGrad">
      <stop offset="0%" style="stop-color:#E6B3E6;stop-opacity:1" />
      <stop offset="100%" style="stop-color:#D896D8;stop-opacity:1" />
    </radialGradient>
  </defs>
  
  <!-- Background -->
  <circle cx="100" cy="100" r="95" fill="#F3E5F5"/>
  
  <!-- Lavender flowers -->
  <g>
    <!-- Stems -->
    <rect x="48" y="80" width="4" height="70" fill="#7B8D3F"/>
    <rect x="78" y="70" width="4" height="80" fill="#7B8D3F"/>
    <rect x="108" y="75" width="4" height="75" fill="#7B8D3F"/>
    <rect x="138" y="85" width="4" height="65" fill="#7B8D3F"/>
    
    <!-- Flower buds -->
    <ellipse cx="50" cy="80" rx="8" ry="12" fill="url(#flowerGrad)"/>
    <ellipse cx="50" cy="65" rx="7" ry="11" fill="url(#flowerGrad)"/>
    <ellipse cx="50" cy="50" rx="6" ry="10" fill="url(#flowerGrad)"/>
    
    <ellipse cx="80" cy="70" rx="9" ry="13" fill="url(#flowerGrad)"/>
    <ellipse cx="80" cy="53" rx="8" ry="12" fill="url(#flowerGrad)"/>
    <ellipse cx="80" cy="38" rx="7" ry="11" fill="url(#flowerGrad)"/>
    
    <ellipse cx="110" cy="75" rx="8" ry="12" fill="url(#flowerGrad)"/>
    <ellipse cx="110" cy="58" rx="7" ry="11" fill="url(#flowerGrad)"/>
    <ellipse cx="110" cy="43" rx="6" ry="10" fill="url(#flowerGrad)"/>
    
    <ellipse cx="140" cy="85" rx="8" ry="12" fill="url(#flowerGrad)"/>
    <ellipse cx="140" cy="68" rx="7" ry="11" fill="url(#flowerGrad)"/>
    <ellipse cx="140" cy="53" rx="6" ry="10" fill="url(#flowerGrad)"/>
  </g>
  
  <!-- Leaves -->
  <ellipse cx="45" cy="100" rx="8" ry="15" fill="#8FA959" transform="rotate(-30 45 100)"/>
  <ellipse cx="145" cy="110" rx="8" ry="15" fill="#8FA959" transform="rotate(30 145 110)"/>
  
  <!-- Coffee cup silhouette -->
  <path d="M 70 130 L 70 160 Q 100 165 130 160 L 130 130 Z" fill="#9C7FB5" opacity="0.5"/>
</svg>
