<svg width="200" height="200" viewBox="0 0 200 200" xmlns="http://www.w3.org/2000/svg">
  <defs>
    <radialGradient id="sunGrad">
      <stop offset="0%" style="stop-color:#FFD700;stop-opacity:1" />
      <stop offset="100%" style="stop-color:#FFA500;stop-opacity:1" />
    </radialGradient>
    <linearGradient id="groundGrad" x1="0%" y1="0%" x2="0%" y2="100%">
      <stop offset="0%" style="stop-color:#90EE90;stop-opacity:1" />
      <stop offset="100%" style="stop-color:#7CB342;stop-opacity:1" />
    </linearGradient>
  </defs>
  
  <!-- Sky background -->
  <circle cx="100" cy="100" r="95" fill="#87CEEB"/>
  
  <!-- Sun -->
  <circle cx="100" cy="60" r="35" fill="url(#sunGrad)"/>
  
  <!-- Sun rays -->
  <line x1="100" y1="20" x2="100" y2="35" stroke="#FFD700" stroke-width="4" stroke-linecap="round"/>
  <line x1="135" y1="35" x2="125" y2="48" stroke="#FFD700" stroke-width="4" stroke-linecap="round"/>
  <line x1="155" y1="60" x2="140" y2="60" stroke="#FFD700" stroke-width="4" stroke-linecap="round"/>
  <line x1="135" y1="85" x2="125" y2="72" stroke="#FFD700" stroke-width="4" stroke-linecap="round"/>
  <line x1="65" y1="35" x2="75" y2="48" stroke="#FFD700" stroke-width="4" stroke-linecap="round"/>
  <line x1="45" y1="60" x2="60" y2="60" stroke="#FFD700" stroke-width="4" stroke-linecap="round"/>
  <line x1="65" y1="85" x2="75" y2="72" stroke="#FFD700" stroke-width="4" stroke-linecap="round"/>
  
  <!-- Ground -->
  <ellipse cx="100" cy="150" rx="70" ry="25" fill="url(#groundGrad)"/>
  
  <!-- Palm tree -->
  <rect x="40" y="120" width="8" height="50" fill="#8B4513"/>
  <ellipse cx="44" cy="115" rx="18" ry="25" fill="#228B22"/>
  <ellipse cx="28" cy="110" rx="15" ry="8" fill="#228B22" transform="rotate(-45 28 110)"/>
  <ellipse cx="60" cy="110" rx="15" ry="8" fill="#228B22" transform="rotate(45 60 110)"/>
  
  <!-- Beach umbrella -->
  <path d="M 140 130 Q 120 120 140 110 Q 160 120 140 130" fill="#FF6B6B"/>
  <path d="M 140 110 Q 125 115 140 120 Q 155 115 140 110" fill="#FFD93D"/>
  <rect x="138" y="130" width="4" height="25" fill="#8B4513"/>
</svg>
