<svg width="200" height="200" viewBox="0 0 200 200" xmlns="http://www.w3.org/2000/svg">
  <defs>
    <linearGradient id="curtainGrad" x1="0%" y1="0%" x2="100%" y2="0%">
      <stop offset="0%" style="stop-color:#8B0000;stop-opacity:1" />
      <stop offset="50%" style="stop-color:#DC143C;stop-opacity:1" />
      <stop offset="100%" style="stop-color:#8B0000;stop-opacity:1" />
    </linearGradient>
  </defs>
  
  <!-- Background -->
  <circle cx="100" cy="100" r="95" fill="#2C2C2C"/>
  
  <!-- Theater curtains -->
  <path d="M 30 40 Q 35 80 40 120 L 45 40 Q 50 80 55 120 L 60 40 Q 65 80 70 120" 
        fill="url(#curtainGrad)" stroke="#6B0000" stroke-width="1"/>
  <path d="M 130 40 Q 135 80 140 120 L 145 40 Q 150 80 155 120 L 160 40 Q 165 80 170 120" 
        fill="url(#curtainGrad)" stroke="#6B0000" stroke-width="1"/>
  
  <!-- Theater masks -->
  <!-- Comedy mask (happy) -->
  <circle cx="75" cy="100" r="30" fill="#F5F5DC" stroke="#8B7355" stroke-width="2"/>
  <ellipse cx="65" cy="95" rx="5" ry="8" fill="#000000"/>
  <ellipse cx="85" cy="95" rx="5" ry="8" fill="#000000"/>
  <path d="M 60 110 Q 75 120 90 110" fill="none" stroke="#000000" stroke-width="3" stroke-linecap="round"/>
  
  <!-- Tragedy mask (sad) -->
  <circle cx="125" cy="100" r="30" fill="#F5F5DC" stroke="#8B7355" stroke-width="2"/>
  <ellipse cx="115" cy="95" rx="5" ry="8" fill="#000000"/>
  <ellipse cx="135" cy="95" rx="5" ry="8" fill="#000000"/>
  <path d="M 110 115 Q 125 105 140 115" fill="none" stroke="#000000" stroke-width="3" stroke-linecap="round"/>
  
  <!-- Stage curtain rod -->
  <rect x="25" y="35" width="150" height="5" fill="#8B7355"/>
  <circle cx="25" cy="37" r="5" fill="#DAA520"/>
  <circle cx="175" cy="37" r="5" fill="#DAA520"/>
  
  <!-- Spotlight effect -->
  <ellipse cx="100" cy="100" rx="65" ry="55" fill="none" stroke="#FFD700" stroke-width="2" opacity="0.3"/>
  
  <!-- Coffee cup silhouette at bottom -->
  <path d="M 85 155 L 88 170 L 112 170 L 115 155 Z" fill="#8B7355" opacity="0.6"/>
</svg>
